<svg xmlns="http://www.w3.org/2000/svg" xmlns:xlink="http://www.w3.org/1999/xlink" width="500" zoomAndPan="magnify" viewBox="0 0 375 374.999991" height="500" preserveAspectRatio="xMidYMid meet" version="1.0"><defs><clipPath id="12068e1a95"><path d="M 35.738281 54 L 339 54 L 339 320.949219 L 35.738281 320.949219 Z M 35.738281 54 " clip-rule="nonzero"/></clipPath><clipPath id="d51bfd9293"><path d="M 122.359375 54 L 186.859375 54 L 186.859375 320.949219 L 122.359375 320.949219 Z M 122.359375 54 " clip-rule="nonzero"/></clipPath><clipPath id="88196f9f61"><path d="M 254.238281 54 L 339.738281 54 L 339.738281 320.949219 L 254.238281 320.949219 Z M 254.238281 54 " clip-rule="nonzero"/></clipPath><clipPath id="dcce4de1d5"><path d="M 110 214 L 123 214 L 123 322 L 110 322 Z M 110 214 " clip-rule="nonzero"/></clipPath><clipPath id="29a5c5ff7d"><path d="M 115.957031 213.984375 L 127.785156 214.613281 L 122.144531 321.074219 L 110.316406 320.449219 Z M 115.957031 213.984375 " clip-rule="nonzero"/></clipPath><clipPath id="485a44d4b8"><path d="M 121.871094 214.300781 L 122.144531 321.050781 L 110.316406 320.421875 Z M 121.871094 214.300781 " clip-rule="nonzero"/></clipPath><clipPath id="5e2b17231a"><path d="M 178 53 L 188 53 L 188 133 L 178 133 Z M 178 53 " clip-rule="nonzero"/></clipPath><clipPath id="7b3e962a9a"><path d="M 191.25 131.960938 L 182.582031 132.390625 L 178.738281 54.351562 L 187.410156 53.925781 Z M 191.25 131.960938 " clip-rule="nonzero"/></clipPath><clipPath id="f6ea9d2e64"><path d="M 186.914062 132.175781 L 178.738281 54.371094 L 187.410156 53.945312 Z M 186.914062 132.175781 " clip-rule="nonzero"/></clipPath><clipPath id="45f96833df"><path d="M 254 214 L 267 214 L 267 321 L 254 321 Z M 254 214 " clip-rule="nonzero"/></clipPath><clipPath id="daac48d3d2"><path d="M 248.457031 214.574219 L 260.285156 213.9375 L 266.039062 320.390625 L 254.210938 321.03125 Z M 248.457031 214.574219 " clip-rule="nonzero"/></clipPath><clipPath id="d470a5dc99"><path d="M 254.371094 214.253906 L 266.039062 320.367188 L 254.210938 321.007812 Z M 254.371094 214.253906 " clip-rule="nonzero"/></clipPath></defs><g clip-path="url(#12068e1a95)"><path fill="#b0050e" d="M 337.347656 56.519531 C 336.195312 55.066406 334.445312 54.21875 332.589844 54.21875 L 295.222656 54.21875 C 292.417969 54.21875 289.976562 56.144531 289.328125 58.871094 L 252.9375 211.730469 L 252.089844 211.730469 L 211.222656 58.710938 C 210.511719 56.058594 208.113281 54.21875 205.367188 54.21875 L 169.019531 54.21875 C 166.277344 54.21875 163.871094 56.058594 163.167969 58.710938 L 122.304688 211.730469 L 121.457031 211.730469 L 85.054688 58.871094 C 84.40625 56.144531 81.96875 54.21875 79.164062 54.21875 L 41.796875 54.21875 C 39.945312 54.21875 38.191406 55.066406 37.042969 56.519531 C 35.890625 57.972656 35.472656 59.875 35.902344 61.675781 L 96.484375 316.121094 C 97.140625 318.851562 99.574219 320.777344 102.378906 320.777344 L 132.457031 320.777344 C 135.203125 320.777344 137.601562 318.9375 138.3125 316.28125 L 187.195312 132.972656 L 236.078125 316.28125 C 236.785156 318.9375 239.1875 320.777344 241.929688 320.777344 L 272.007812 320.777344 C 274.8125 320.777344 277.253906 318.851562 277.902344 316.121094 L 338.484375 61.675781 C 338.914062 59.875 338.492188 57.972656 337.347656 56.519531 Z M 337.347656 56.519531 " fill-opacity="1" fill-rule="nonzero"/></g><g clip-path="url(#d51bfd9293)"><path fill="#e40814" d="M 337.347656 56.519531 C 336.195312 55.066406 334.445312 54.21875 332.589844 54.21875 L 295.222656 54.21875 C 292.417969 54.21875 289.976562 56.144531 289.328125 58.871094 L 252.9375 211.730469 L 252.089844 211.730469 L 211.222656 58.710938 C 210.511719 56.058594 208.113281 54.21875 205.367188 54.21875 L 169.019531 54.21875 C 166.277344 54.21875 163.871094 56.058594 163.167969 58.710938 L 122.304688 211.730469 L 121.457031 211.730469 L 85.054688 58.871094 C 84.40625 56.144531 81.96875 54.21875 79.164062 54.21875 L 41.796875 54.21875 C 39.945312 54.21875 38.191406 55.066406 37.042969 56.519531 C 35.890625 57.972656 35.472656 59.875 35.902344 61.675781 L 96.484375 316.121094 C 97.140625 318.851562 99.574219 320.777344 102.378906 320.777344 L 132.457031 320.777344 C 135.203125 320.777344 137.601562 318.9375 138.3125 316.28125 L 187.195312 132.972656 L 236.078125 316.28125 C 236.785156 318.9375 239.1875 320.777344 241.929688 320.777344 L 272.007812 320.777344 C 274.8125 320.777344 277.253906 318.851562 277.902344 316.121094 L 338.484375 61.675781 C 338.914062 59.875 338.492188 57.972656 337.347656 56.519531 Z M 337.347656 56.519531 " fill-opacity="1" fill-rule="nonzero"/></g><g clip-path="url(#88196f9f61)"><path fill="#e40814" d="M 337.871094 56.519531 C 336.722656 55.066406 334.96875 54.21875 333.117188 54.21875 L 295.75 54.21875 C 292.945312 54.21875 290.503906 56.144531 289.855469 58.871094 L 253.464844 211.730469 L 252.617188 211.730469 L 211.746094 58.710938 C 211.039062 56.058594 208.640625 54.21875 205.894531 54.21875 L 169.546875 54.21875 C 166.800781 54.21875 164.394531 56.058594 163.691406 58.710938 L 122.832031 211.730469 L 121.984375 211.730469 L 85.578125 58.871094 C 84.929688 56.144531 82.496094 54.21875 79.691406 54.21875 L 42.324219 54.21875 C 40.46875 54.21875 38.71875 55.066406 37.566406 56.519531 C 36.417969 57.972656 36 59.875 36.429688 61.675781 L 97.011719 316.121094 C 97.664062 318.851562 100.101562 320.777344 102.90625 320.777344 L 132.984375 320.777344 C 135.726562 320.777344 138.128906 318.9375 138.835938 316.28125 L 187.71875 132.972656 L 236.605469 316.28125 C 237.3125 318.9375 239.710938 320.777344 242.457031 320.777344 L 272.535156 320.777344 C 275.339844 320.777344 277.78125 318.851562 278.429688 316.121094 L 339.011719 61.675781 C 339.441406 59.875 339.015625 57.972656 337.871094 56.519531 Z M 337.871094 56.519531 " fill-opacity="1" fill-rule="nonzero"/></g><g clip-path="url(#dcce4de1d5)"><g clip-path="url(#29a5c5ff7d)"><g clip-path="url(#485a44d4b8)"><path fill="#9d020f" d="M 115.957031 213.984375 L 127.785156 214.613281 L 122.148438 321.027344 L 110.316406 320.402344 Z M 115.957031 213.984375 " fill-opacity="1" fill-rule="nonzero"/></g></g></g><g clip-path="url(#5e2b17231a)"><g clip-path="url(#7b3e962a9a)"><g clip-path="url(#f6ea9d2e64)"><path fill="#9d020f" d="M 191.25 131.960938 L 182.582031 132.390625 L 178.742188 54.386719 L 187.410156 53.960938 Z M 191.25 131.960938 " fill-opacity="1" fill-rule="nonzero"/></g></g></g><g clip-path="url(#45f96833df)"><g clip-path="url(#daac48d3d2)"><g clip-path="url(#d470a5dc99)"><path fill="#9d020f" d="M 248.457031 214.574219 L 260.285156 213.9375 L 266.039062 320.34375 L 254.207031 320.984375 Z M 248.457031 214.574219 " fill-opacity="1" fill-rule="nonzero"/></g></g></g></svg>